<?xml version="1.0" encoding="UTF-8" standalone="no"?>
<svg
   xmlns:dc="http://purl.org/dc/elements/1.1/"
   xmlns:cc="http://creativecommons.org/ns#"
   xmlns:rdf="http://www.w3.org/1999/02/22-rdf-syntax-ns#"
   xmlns:svg="http://www.w3.org/2000/svg"
   xmlns="http://www.w3.org/2000/svg"
   viewBox="0 0 432 204"
   height="204"
   width="432"
   xml:space="preserve"
   id="svg2"
   version="1.1"><metadata
     id="metadata8"><rdf:RDF><cc:Work
         rdf:about=""><dc:format>image/svg+xml</dc:format><dc:type
           rdf:resource="http://purl.org/dc/dcmitype/StillImage" /></cc:Work></rdf:RDF></metadata><defs
     id="defs6" /><g
     transform="matrix(1.3333333,0,0,-1.3333333,0,204)"
     id="g10"><g
       transform="scale(0.1)"
       id="g12"><path
         id="path14"
         style="fill:#cccccc;fill-opacity:1;fill-rule:evenodd;stroke:none"
         d="m 1064.49,1347.5 -153.51,-270 79.02,-9.53 113.01,205.51 -38.52,74.02" /><path
         id="path16"
         style="fill:#cccccc;fill-opacity:1;fill-rule:evenodd;stroke:none"
         d="m 302.5,880 55.512,123.48 -34.032,55 L 241.988,880 H 302.5" /><path
         id="path18"
         style="fill:#cccccc;fill-opacity:1;fill-rule:evenodd;stroke:none"
         d="M 225,842.5 101.48,573.48 H 165 l 60,133.508 V 842.5" /><path
         id="path20"
         style="fill:#2611a8;fill-opacity:1;fill-rule:evenodd;stroke:none"
         d="m 1289.49,573.98 -258.01,489.5 -765,90 L 620,573.98 h 669.49" /><path
         id="path22"
         style="fill:#0f1747;fill-opacity:1;fill-rule:evenodd;stroke:none"
         d="M 266.48,1153.48 0,573.98 h 63.4805 l 236.0075,525.51 -33.008,53.99" /><path
         id="path24"
         style="fill:#4c4c4c;fill-opacity:1;fill-rule:evenodd;stroke:none"
         d="m 243.48,728.988 h 145 V 863.48 h -145 z" /><path
         id="path26"
         style="fill:#4c4c4c;fill-opacity:1;fill-rule:evenodd;stroke:none"
         d="m 243.48,573.988 h 145 v 138.98 h -145 z" /><path
         id="path28"
         style="fill:#cccccc;fill-opacity:1;fill-rule:evenodd;stroke:none"
         d="M 2900,811.48 3060,795.469 2913.01,1047.5 2844.49,868.48 2900,779.488 v 31.992" /><path
         id="path30"
         style="fill:#cccccc;fill-opacity:1;fill-rule:evenodd;stroke:none"
         d="m 3061.48,790.98 v -217 h 34.03 V 732.5 l -34.03,58.48" /><path
         id="path32"
         style="fill:#2611a8;fill-opacity:1;fill-rule:evenodd;stroke:none"
         d="m 3120.98,683.98 v -110 h 118 l -118,110" /><path
         id="path34"
         style="fill:#2611a8;fill-opacity:1;fill-rule:evenodd;stroke:none"
         d="m 1008.01,1454.49 463.47,-881.01 h 392.5 L 1788.01,770 h 120.97 l 226.02,590 -216.52,-86.52 -910.47,181.01" /><path
         id="path36"
         style="fill:#2611a8;fill-opacity:1;fill-rule:evenodd;stroke:none"
         d="m 2703.98,1072.5 -61.48,57.5 -425,84.49 250.98,-444.021 h -0.47 l 1.48,-2.5 h -123.01 l -0.5,1.011 v -195 h 425 l -77.97,156.489 h 98.98 l 73.52,192.031 96.99,252.97 -258.52,-102.97" /><path
         id="path38"
         style="fill:#4c4c4c;fill-opacity:1;fill-rule:evenodd;stroke:none"
         d="M 2243.48,716.988 V 857.5 L 2032.5,875.98 V 724.488 l 210.98,-7.5" /><path
         id="path40"
         style="fill:#4c4c4c;fill-opacity:1;fill-rule:evenodd;stroke:none"
         d="m 2032.5,703.48 v -129.5 h 210.98 v 126.489 l -210.98,3.011" /><path
         id="path42"
         style="fill:#cccccc;fill-opacity:1;fill-rule:evenodd;stroke:none"
         d="M 2770.51,573.48 V 730.469 H 2692.5 L 2770.51,573.48" /><path
         id="path44"
         style="fill:#4c4c4c;fill-opacity:1;fill-rule:evenodd;stroke:none"
         d="m 3050.51,687.5 v 98.98 l -137.5,12 V 692.5 l 137.5,-5" /><path
         id="path46"
         style="fill:#4c4c4c;fill-opacity:1;fill-rule:evenodd;stroke:none"
         d="M 2913.01,679.488 V 573.48 h 137.5 V 677.5 l -137.5,1.988" /><path
         id="path48"
         style="fill:#0f1747;fill-opacity:1;fill-rule:evenodd;stroke:none"
         d="m 881.48,1080.98 165.51,300 -38.98,73.51 -206.53,-364.02 80,-9.49" /><path
         id="path50"
         style="fill:#191919;fill-opacity:1;fill-rule:evenodd;stroke:none"
         d="M 1564.49,1343.98 V 1530 l -51.99,-58.01 v -117.5 l 51.99,-10.51" /><path
         id="path52"
         style="fill:#4c4c4c;fill-opacity:1;fill-rule:evenodd;stroke:none"
         d="m 1761.48,1305 v 172.97 L 1564.49,1530 V 1343.98 L 1761.48,1305" /><path
         id="path54"
         style="fill:#cccccc;fill-opacity:1;fill-rule:evenodd;stroke:none"
         d="m 1865,573.98 v 196.489 h -76.52 L 1865,573.98" /><path
         id="path56"
         style="fill:#cccccc;fill-opacity:1;fill-rule:evenodd;stroke:none"
         d="m 2241.48,871.48 -176.99,303.99 -85,-222.501 38.99,-62.5 223,-18.989" /><path
         id="path58"
         style="fill:#cccccc;fill-opacity:1;fill-rule:evenodd;stroke:none"
         d="m 2258.01,843.48 v -269.5 h 42.5 v 196.489 l -42.5,73.011" /><path
         id="path60"
         style="fill:#0f1747;fill-opacity:1;fill-rule:evenodd;stroke:none"
         d="m 2961.99,1175.47 -33.51,-87.97 192.5,-357.031 h 92.5 l -251.49,445.001" /><path
         id="path62"
         style="fill:#0f1747;fill-opacity:1;fill-rule:evenodd;stroke:none"
         d="m 2135.51,1359.49 -54.03,-140.51 265,-451.011 h 123.01 l -333.98,591.521" /><path
         id="path64"
         style="fill:#111749;fill-opacity:1;fill-rule:nonzero;stroke:none"
         d="m 573.98,323.98 c 0,38.321 17.821,57.5 53.442,57.5 h 157.5 v -92.5 h -40 v 58.442 h -130 V 40.5508 h 130 V 157.422 L 675.551,113.98 v 36.571 L 784.922,218.98 V 6.48047 H 636.48 c -23.671,0 -39.8,4.30083 -48.429,12.96873 -9.379,9.0703 -14.071,25.3906 -14.071,49.0703 z m 427.43,-79.531 c 7.07,5.321 15.66,7.973 25.78,7.973 10.19,0 18.83,-3.512 25.93,-10.473 7.19,-6.988 10.79,-17.808 10.79,-32.5 V 50.5508 c 0,-14.0703 -2.15,-23.75 -6.41,-29.0703 -8.67,-10 -21.33,-15.00003 -37.97,-15.00003 H 845.469 V 40.5508 h 31.562 V 348.051 h -31.09 v 33.429 h 104.528 c 33.941,0 50.941,-14.839 50.941,-44.531 z M 960.941,218.98 V 348.051 H 917.969 V 191.949 Z m 62.969,-0.46 -105.941,-66.571 V 41.0195 h 105.941 z" /><path
         id="path66"
         style="fill:#111749;fill-opacity:1;fill-rule:nonzero;stroke:none"
         d="M 1364.53,347.422 V 256.48 h 40.63 v -35.929 h -40.63 V 40.5508 h 47.5 V 6.48047 h -41.87 c -15,0 -26.21,3.91013 -33.6,11.71873 -7.3,7.8203 -10.94,21.25 -10.94,40.3203 V 220.551 h -37.03 v 35.929 h 37.03 v 90.942 z" /><path
         id="path68"
         style="fill:#111749;fill-opacity:1;fill-rule:nonzero;stroke:none"
         d="m 1493.36,6.48047 c -17.11,0 -29.14,3.91013 -36.09,11.71873 -7,7.8203 -10.47,18.75 -10.47,32.8203 V 211.949 c 0,13.321 3.04,24.071 9.22,32.192 6.13,8.199 18.59,12.339 37.34,12.339 h 92.5 c 18.32,0 30.62,-4.14 36.87,-12.339 6.33,-8.121 9.54,-18.871 9.54,-32.192 V 51.0195 c 0,-14.0703 -3.52,-25 -10.47,-32.8203 -7,-7.8086 -18.99,-11.71873 -35.94,-11.71873 z m -6.09,34.07033 h 104.531 v 181.871 H 1487.27 Z" /><path
         id="path70"
         style="fill:#111749;fill-opacity:1;fill-rule:nonzero;stroke:none"
         d="m 1749.88,40.5508 h 32.5 V 6.48047 h -105 V 40.5508 h 31.57 V 222.422 h -31.57 v 34.058 h 72.5 z M 1729.41,348.52 c 6.96,0 12.86,-2.622 17.66,-7.821 4.88,-5.109 7.34,-11.25 7.34,-18.429 0,-7.188 -2.46,-13.25 -7.34,-18.129 -4.8,-4.801 -10.78,-7.192 -17.97,-7.192 -7.19,0 -13.2,2.391 -17.97,7.192 -4.8,4.879 -7.18,10.941 -7.18,18.129 0,7.179 2.5,13.32 7.5,18.429 5,5.199 10.97,7.821 17.96,7.821 z" /><path
         id="path72"
         style="fill:#111749;fill-opacity:1;fill-rule:nonzero;stroke:none"
         d="M 1898.71,347.422 V 256.48 h 40.63 v -35.929 h -40.63 V 40.5508 h 47.5 V 6.48047 h -41.87 c -15,0 -26.22,3.91013 -33.6,11.71873 -7.3,7.8203 -10.94,21.25 -10.94,40.3203 V 220.551 h -37.03 v 35.929 h 37.03 v 90.942 z" /><path
         id="path74"
         style="fill:#111749;fill-opacity:1;fill-rule:nonzero;stroke:none"
         d="m 2051.91,5.55078 c -25.93,0 -38.9,12.80862 -38.9,38.42972 V 223.051 h -32.03 v 33.898 h 72.5 V 40.5508 l 99.53,62.5002 v 120 h -24.53 v 33.898 h 65 V 40.5508 h 31.56 V 6.48047 h -72.03 V 62.4219 l -82.97,-51.8711 c -5.43,-3.35939 -11.49,-5.00002 -18.13,-5.00002 z" /><path
         id="path76"
         style="fill:#111749;fill-opacity:1;fill-rule:nonzero;stroke:none"
         d="m 2416.72,256.48 c 25.94,0 38.9,-12.808 38.9,-38.429 V 173.52 h -40.46 v 48.429 l -77.97,-49.527 V 40.5508 h 24.53 V 6.48047 h -96.56 V 40.5508 h 31.56 V 223.051 h -31.56 v 33.898 h 72.03 v -43.898 l 61.4,38.429 c 5.39,3.321 11.45,5 18.13,5 z" /><path
         id="path78"
         style="fill:#111749;fill-opacity:1;fill-rule:nonzero;stroke:none"
         d="m 2500.62,207.422 c 0,33.008 17.19,49.527 51.57,49.527 h 84.37 c 16.33,0 28.17,-3.199 35.47,-9.527 7.38,-6.25 11.09,-17.934 11.09,-35 V 166.02 L 2540.62,76.0195 V 40.5508 h 102.97 v 28.8984 h 39.53 V 43.0508 c 0,-10 -3.08,-18.6016 -9.21,-25.7813 -6.18,-7.1914 -16.41,-10.78903 -30.79,-10.78903 h -102.5 c -14.37,0 -24.64,3.59763 -30.78,10.78903 -6.17,7.1797 -9.22,15.7813 -9.22,25.7813 z m 40,-90.942 102.5,64.54 v 41.402 h -102.5 z" /></g></g></svg>